<svg xmlns="http://www.w3.org/2000/svg" version="1.1" xmlns:xlink="http://www.w3.org/1999/xlink" xmlns:svgjs="http://svgjs.dev/svgjs" width="512" height="512"><svg version="1.1" id="SvgjsSvg1028" xmlns="http://www.w3.org/2000/svg" xmlns:xlink="http://www.w3.org/1999/xlink" x="0px" y="0px" viewBox="0 0 512 512" style="width: 256px; height: 256px; opacity: 1;" xml:space="preserve">
<style type="text/css">
	.st0{fill:#4B4B4B;}
</style>
<g>
	<path class="st0" d="M412.404,53.469H208.182c-66.002,0-119.511,53.51-119.511,119.511v27.073v108.918c0,8.567,0,17.134,0,25.7
		c0,17.576-4.864,39.988-26.327,48.711c-10.198,4.145-21.39-1.051-30.27-7.563L0,414.573c43.59,31.752,93.175,33.208,127.977,0.193
		c30.37-28.804,32.765-65.826,32.912-104.496c11.395,3.592,19.658,14.232,19.658,26.806v121.455h45.137h38.955V374.76h154.58v83.771
		H512V153.065C512,98.062,467.416,53.469,412.404,53.469z M176.108,218.864c-10.916,0-19.768-8.843-19.768-19.76
		c0-10.925,8.853-19.768,19.768-19.768c10.907,0,19.758,8.843,19.758,19.768C195.866,210.02,187.014,218.864,176.108,218.864z
		 M239.336,315.041c-3.868,0-7.019-3.15-7.019-7.028c0-3.878,3.15-7.028,7.019-7.028c29.127,0,55.436-11.781,74.532-30.867
		c19.086-19.097,30.868-45.404,30.868-74.532c0-3.878,3.15-7.028,7.038-7.028c3.868,0,7.019,3.15,7.019,7.028
		C358.792,261.559,305.31,315.033,239.336,315.041z" style="fill: rgb(119, 119, 119);"></path>
</g>
</svg><style>@media (prefers-color-scheme: light) { :root { filter: none; } }
@media (prefers-color-scheme: dark) { :root { filter: none; } }
</style></svg>